<svg id="Layer_1" data-name="Layer 1" xmlns="http://www.w3.org/2000/svg" viewBox="0 0 457.15 45.02"><defs><style>.cls-1{fill:#fff;}</style></defs><title>pw-logo</title><path class="cls-1" d="M92.4,408v14.5H77.33v-45H96.66a31.63,31.63,0,0,1,6.74.73,17.35,17.35,0,0,1,5.91,2.48,13.09,13.09,0,0,1,4.2,4.65,17.24,17.24,0,0,1,0,14.4,13.68,13.68,0,0,1-4.14,4.77,17,17,0,0,1-5.91,2.67,28.31,28.31,0,0,1-6.83.82Zm0-18.75v7.24h3.18a6,6,0,0,0,3.14-.85,3.11,3.11,0,0,0,1.43-2.9,3.47,3.47,0,0,0-.38-1.75,2.69,2.69,0,0,0-1-1,4.49,4.49,0,0,0-1.49-.54,8.39,8.39,0,0,0-1.65-.16Z" transform="translate(-77.33 -377.43)"/><path class="cls-1" d="M118.59,377.43h15.26v32h14.94v13h-30.2Z" transform="translate(-77.33 -377.43)"/><path class="cls-1" d="M222.23,422.45H207.1V404l-17-26.58h18.25l7.12,13.23,6.8-13.23H240.1L222.23,404Z" transform="translate(-77.33 -377.43)"/><path class="cls-1" d="M242.13,377.43h31V390H256.37v3.88h15.71v11.76H256.37v4.2h17.81v12.59H242.13Z" transform="translate(-77.33 -377.43)"/><path class="cls-1" d="M279.83,377.43h19.4a33.32,33.32,0,0,1,6.58.67,16.84,16.84,0,0,1,5.85,2.35,12.85,12.85,0,0,1,4.16,4.52,14.3,14.3,0,0,1,1.59,7.09,12.73,12.73,0,0,1-7.86,12.14L321,422.45H303.59L295,406.36h-.45v16.09H279.83Zm14.56,19h3a13,13,0,0,0,1.67-.12,5.37,5.37,0,0,0,1.7-.54,3.87,3.87,0,0,0,1.33-1.15,3.17,3.17,0,0,0,.54-1.94,3.47,3.47,0,0,0-.45-1.9,2.77,2.77,0,0,0-1.13-1.05,4.48,4.48,0,0,0-1.52-.45,13.82,13.82,0,0,0-1.51-.09h-3.6Z" transform="translate(-77.33 -377.43)"/><path class="cls-1" d="M363.7,422.45H348.44l-12.27-45h16L357,402.74h.26l5.21-25.31h15.83L384,402.74h.26l4.89-25.31h15.52l-12.53,45H376.86L370.5,397h-.25Z" transform="translate(-77.33 -377.43)"/><path class="cls-1" d="M407.25,377.43h31V390H421.49v3.88H437.2v11.76H421.49v4.2H439.3v12.59H407.25Z" transform="translate(-77.33 -377.43)"/><path class="cls-1" d="M458.12,377.43H474.2l17.55,45H475.28l-2.35-6.61h-14.3l-2.23,6.61h-16Zm7.82,15.71-3.69,11.13h7.31Z" transform="translate(-77.33 -377.43)"/><path class="cls-1" d="M493.34,377.43h19.39a33.16,33.16,0,0,1,6.58.67,16.69,16.69,0,0,1,5.85,2.35,12.79,12.79,0,0,1,4.17,4.52,14.3,14.3,0,0,1,1.59,7.09,12.73,12.73,0,0,1-7.86,12.14l11.42,18.25H517.1l-8.63-16.09H508v16.09H493.34Zm14.56,19h3a13,13,0,0,0,1.67-.12,5.37,5.37,0,0,0,1.7-.54,3.87,3.87,0,0,0,1.33-1.15,3.23,3.23,0,0,0,.53-1.94,3.47,3.47,0,0,0-.44-1.9,2.77,2.77,0,0,0-1.13-1.05,4.54,4.54,0,0,0-1.52-.45,13.82,13.82,0,0,0-1.51-.09h-3.6Z" transform="translate(-77.33 -377.43)"/><path class="cls-1" d="M183.7,377.43H167.61l-17.74,45h16l2.22-6.61h14.31l2.35,6.61h16.47Zm-4.62,24.27,1.86,6.28-5.4-3.71L170.15,408,172,401.7l-5.2-4,6.55-.17,2.18-6.18,2.19,6.18,6.55.17Z" transform="translate(-77.33 -377.43)"/></svg>