<svg id="Layer_1" data-name="Layer 1" xmlns="http://www.w3.org/2000/svg" viewBox="0 0 300 56"><defs><style>.cls-1{fill:#fff;}</style></defs><title>Artboard 1</title><g id="ba_logo_large" data-name="ba logo large"><path class="cls-1" d="M264.007,7.74a3.881,3.881,0,1,0,3.877,3.883A3.886,3.886,0,0,0,264.007,7.74Zm1.942,6.566-1.942-1.421-1.948,1.421.76-2.275-1.949-1.408h2.4l.741-2.3.734,2.3h2.4L265.2,12.031Z"/><path class="cls-1" d="M70.632,22.588A5.658,5.658,0,0,0,68.6,21.02a4.762,4.762,0,0,0,1.328-1.215c.794-1.1,1.175-2.842,1.175-5.345,0-3.323-.788-5.5-2.423-6.667-1.522-1.081-4.385-1.609-8.723-1.609H41.135V37.417H58.613c5.226,0,8.656-.607,10.5-1.828,1.935-1.315,2.916-3.771,2.916-7.328C72.027,25.638,71.573,23.79,70.632,22.588ZM47.3,11.277H58.26c4.31,0,5.478.42,5.772.607.227.147.761.714.761,2.936,0,2.323-.487,3.07-.781,3.3-.32.26-1.268.708-3.911.708H47.3Zm17.478,20.4c-.388.267-1.5.721-4.518.721H47.3V23.777H57.619c5.059,0,6.58.487,7.034.773.82.548,1,2.089,1,3.284C65.654,30.757,65.046,31.491,64.78,31.678Z"/><path class="cls-1" d="M79.715,6.184H74.756V37.417H80.7V6.184Z"/><path class="cls-1" d="M107.3,17.957a5.072,5.072,0,0,0-2.048-2.176,10.442,10.442,0,0,0-3.691-1.007,58.936,58.936,0,0,0-6.641-.28c-3.85,0-6.52.393-8.174,1.241A4.91,4.91,0,0,0,83.966,20.4v1.455h5.907l.032-.954c.028-.935.395-1.228.728-1.388.387-.187,1.5-.5,4.565-.5,4.411,0,5.626.428,5.939.608.668.387.8,1.528.8,2.416V23.7a7.857,7.857,0,0,0-1.708-.614,25.909,25.909,0,0,0-5.833-.5,43.329,43.329,0,0,0-5.573.274,8.229,8.229,0,0,0-3.256,1.048,5.2,5.2,0,0,0-2.029,2.456,10.044,10.044,0,0,0-.581,3.791c0,2.869.888,4.891,2.61,6.006,1.615,1.034,4.571,1.548,9.036,1.548a21.542,21.542,0,0,0,5.846-.628,7.829,7.829,0,0,0,1.836-.78c0,.033.066,1.114.066,1.114h5.532V21.955A9.987,9.987,0,0,0,107.3,17.957Zm-5.359,13.221c0,.5-.74.861-1.348,1.074a17.541,17.541,0,0,1-5.446.647c-3.436,0-4.677-.433-5.111-.687-.6-.361-.908-1.168-.908-2.416,0-1.582.621-1.936.821-2.056.407-.233,1.568-.62,4.765-.62a19.779,19.779,0,0,1,5.913.627c1.314.467,1.314,1.035,1.314,1.248Z"/><path class="cls-1" d="M121.979,14.494c-4.3,0-7.254.654-9.049,2-1.862,1.395-2.8,3.791-2.8,7.142v4.891c0,3.357.954,5.766,2.81,7.161,1.815,1.361,4.778,2.022,9.089,2.022H123.9c4.11,0,7.02-.628,8.875-1.936,1.936-1.354,2.91-3.583,2.91-6.62V27.781H129.6v1.334c0,1.5-.34,2.51-1,3.017-.528.373-1.769.841-4.759.841h-1.862c-3.257,0-4.384-.535-4.765-.841-.273-.227-.914-1.121-.914-4.291V24.31c0-3.09.627-3.957.908-4.191.367-.294,1.481-.814,4.771-.814h1.862c3.13,0,4.284.474,4.7.754a3.285,3.285,0,0,1,1.06,2.656l.054.948,6.073-.026-.04-1.008c-.074-2.877-1.1-5-3.064-6.294-1.861-1.248-4.737-1.841-8.782-1.841Z"/><path class="cls-1" d="M143.181,6.184h-4.958V37.417h5.953V27.734l10.2,9.683h7.914s-11.872-11.158-13.24-12.433c1.362-1.214,11.326-10.21,11.326-10.21h-7.515s-7.928,7.241-8.682,7.934V6.184Z"/><path class="cls-1" d="M162.882,15.828c-1.876.988-2.817,2.856-2.817,5.533a7.434,7.434,0,0,0,.788,3.737,5.418,5.418,0,0,0,2.662,2.182c.548.24,1.843.527,6.828.634l3.951.134c3.39.119,4.23.533,4.4.647.36.247.547.907.547,1.882,0,1.508-.54,1.848-.714,1.948-.3.181-1.461.588-5.912.588-3.671,0-5.152-.34-5.773-.634a1.672,1.672,0,0,1-.974-1.749V29.269h-6.02V30.8c0,2.616.954,4.478,2.836,5.5,1.708.947,4.972,1.408,9.99,1.408,2.356,0,4.239-.073,5.573-.2a9.908,9.908,0,0,0,3.2-.707,7.115,7.115,0,0,0,3.07-2.442,7.417,7.417,0,0,0,.882-3.978,7.243,7.243,0,0,0-.909-3.957,5.672,5.672,0,0,0-3.049-2.2,13.142,13.142,0,0,0-3-.514c-1.308-.107-3.1-.2-5.372-.268l-1.635-.032a18.261,18.261,0,0,1-4.992-.488.552.552,0,0,1-.3-.274,3.3,3.3,0,0,1-.14-1.287c0-1.4.527-1.669.7-1.756.387-.193,1.582-.52,5.279-.52s5.239.254,5.873.481c.827.273.894.64.894.967v1.181H184.7v-.98a5.184,5.184,0,0,0-2.669-4.959c-1.568-.861-4.411-1.281-8.629-1.281C168.007,14.494,164.557,14.934,162.882,15.828Z"/><path class="cls-1" d="M194.354,10.082H189.4v4.692h-3.27v4.591h3.27v9.964c0,3.123.7,5.252,2.135,6.526,1.4,1.242,3.718,1.856,7.094,1.856,4.225,0,6.981-.574,8.422-1.748,1.515-1.209,2.249-3.384,2.249-6.634V28.167h-6.012v1.6c0,1.776-.407,2.376-.661,2.576-.28.234-1.061.628-3.27.628s-3.043-.414-3.324-.648a3.424,3.424,0,0,1-.7-2.556v-10.4h13.233V14.774H195.329V10.082Z"/><path class="cls-1" d="M235,17.957a5.093,5.093,0,0,0-2.056-2.176,10.429,10.429,0,0,0-3.69-1.007,58.855,58.855,0,0,0-6.64-.28c-3.851,0-6.527.393-8.169,1.241a4.895,4.895,0,0,0-2.783,4.664v1.455h5.913l.027-.954c.026-.935.413-1.228.727-1.388.394-.187,1.488-.5,4.558-.5,4.425,0,5.632.428,5.953.608.661.387.8,1.528.8,2.416V23.7a8.329,8.329,0,0,0-1.7-.614,26.17,26.17,0,0,0-5.839-.5,43.307,43.307,0,0,0-5.573.274,8.319,8.319,0,0,0-3.257,1.048,5.249,5.249,0,0,0-2.035,2.456,10.362,10.362,0,0,0-.568,3.791c0,2.869.875,4.891,2.6,6.006,1.615,1.034,4.559,1.548,9.03,1.548a21.456,21.456,0,0,0,5.852-.628,7.994,7.994,0,0,0,1.829-.78c0,.033.074,1.114.074,1.114h5.532V21.955A10.246,10.246,0,0,0,235,17.957Zm-5.359,13.221c0,.5-.734.861-1.349,1.074a17.564,17.564,0,0,1-5.445.647c-3.423,0-4.671-.433-5.1-.687q-.921-.542-.921-2.416c0-1.582.614-1.936.827-2.056.414-.233,1.568-.62,4.765-.62a19.743,19.743,0,0,1,5.913.627c1.315.467,1.315,1.035,1.315,1.248Z"/><path class="cls-1" d="M246.028,15.308a6.675,6.675,0,0,0-1.268.72V14.774h-5.866V37.417h6.013V24.424c0-1.916.4-3.27,1.188-4.031.787-.781,2.182-1.175,4.118-1.175,2.142,0,2.936.394,3.217.634a3.578,3.578,0,0,1,.673,2.583v1.588h6.013V22.875c0-3.07-.68-5.2-2.1-6.493-1.387-1.282-3.63-1.888-6.839-1.888A13.815,13.815,0,0,0,246.028,15.308Z"/></g><path class="cls-1" d="M100.476,42.557H98.2l-4.313,7.456h1.833l1.016-1.776h5.2l1.037,1.776h1.833Zm-3.042,4.476c.341-.594,1.737-3.015,1.859-3.229h.093l1.873,3.229Z"/><path class="cls-1" d="M116.276,42.557h-1.184l-3.551,5.949-3.586-5.949h-1.169l-.013-.022v.022h-1.19v7.456h1.7V44.387l3.36,5.626h1.775s2.634-4.412,3.36-5.626v5.626h1.7V42.557h-1.19v-.022Z"/><path class="cls-1" d="M127.078,42.934a6.393,6.393,0,0,0-2.645-.377H119.6v7.456h1.7v-2.7h3.13a6.426,6.426,0,0,0,2.653-.375,1.529,1.529,0,0,0,.824-1.487V44.405A1.531,1.531,0,0,0,127.078,42.934Zm-.94,2.517a.443.443,0,0,1-.239.46,3.889,3.889,0,0,1-1.48.163H121.3v-2.26h3.116a3.907,3.907,0,0,1,1.491.159c.106.053.228.155.228.46Z"/><path class="cls-1" d="M130.843,42.557H129.4v7.456h7.865V48.774H131.1V42.557Z"/><path class="cls-1" d="M139.794,42.557h-1.463v7.456h1.719V42.557Z"/><path class="cls-1" d="M149.215,42.557h-7.041v7.456h1.7V46.781H149.3V45.559h-5.428V43.814h5.595V42.557Z"/><path class="cls-1" d="M152.506,42.557h-1.464v7.456h1.719V42.557Z"/><path class="cls-1" d="M158.427,42.468a5.634,5.634,0,0,0-2.964.567,2.3,2.3,0,0,0-.916,2.078v2.351a2.3,2.3,0,0,0,.916,2.074,5.649,5.649,0,0,0,2.964.564H159.7a6.364,6.364,0,0,0,2.973-.487,1.948,1.948,0,0,0,.914-1.834v-.712h-1.77l.034.4,0,.187a1.011,1.011,0,0,1-.375.943,3.981,3.981,0,0,1-1.867.265h-.84a9.308,9.308,0,0,1-1.412-.073,1.877,1.877,0,0,1-.639-.225.725.725,0,0,1-.317-.344,2.733,2.733,0,0,1-.1-.943V45.3a2.769,2.769,0,0,1,.1-.951.723.723,0,0,1,.315-.344,1.877,1.877,0,0,1,.662-.228,9.264,9.264,0,0,1,1.391-.073h.84a4.086,4.086,0,0,1,1.844.256.9.9,0,0,1,.376.86v.447h1.755v-.56a1.857,1.857,0,0,0-.943-1.758,6.4,6.4,0,0,0-2.944-.485Z"/><path class="cls-1" d="M170.086,42.557h-2.273L163.5,50.013h1.832l1.016-1.776h5.2c.127.219,1.037,1.776,1.037,1.776h1.832Zm-3.043,4.476L168.9,43.8H169l1.873,3.229Z"/><path class="cls-1" d="M180.889,42.557h-8.408v1.257h3.463v6.2h1.719v-6.2h3.482V42.557Z"/><path class="cls-1" d="M183.245,42.557h-1.463v7.456H183.5V42.557Z"/><path class="cls-1" d="M194.043,43.025a6.536,6.536,0,0,0-3.207-.557h-1.371a6.47,6.47,0,0,0-3.194.564,2.242,2.242,0,0,0-.984,2.076v2.355a2.243,2.243,0,0,0,.984,2.079,6.5,6.5,0,0,0,3.194.56h1.371a6.5,6.5,0,0,0,3.191-.56,2.238,2.238,0,0,0,.99-2.079V45.108A2.246,2.246,0,0,0,194.043,43.025Zm-.8,4.252a2.554,2.554,0,0,1-.106.932.725.725,0,0,1-.331.341,2.361,2.361,0,0,1-.743.238,11.369,11.369,0,0,1-1.586.075h-.672a11.185,11.185,0,0,1-1.578-.075,2.348,2.348,0,0,1-.737-.239.747.747,0,0,1-.341-.352,2.488,2.488,0,0,1-.109-.92V45.308a2.522,2.522,0,0,1,.11-.931.741.741,0,0,1,.341-.356,2.359,2.359,0,0,1,.736-.238,11.224,11.224,0,0,1,1.578-.075h.672a11.374,11.374,0,0,1,1.586.074,2.3,2.3,0,0,1,.73.231.742.742,0,0,1,.34.355,2.546,2.546,0,0,1,.11.931Z"/><path class="cls-1" d="M205.98,42.557h-1.446v5.816L199,42.557h-2.223v7.456h1.7V44.189l5.539,5.824h2.224V42.557Z"/></svg>