<svg id="Layer_1" data-name="Layer 1" xmlns="http://www.w3.org/2000/svg" viewBox="0 0 195.92 95.75"><defs><style>.cls-1{fill:#fff;}.cls-2{fill:#231f20;}</style></defs><title>Korg-PW</title><path class="cls-1" d="M208.58,416.68V349.41h17.93v23.92c0,2.81,3.38,2.2,3.79.32l6.19-24.24h17.42l-6.86,28.37-7.86,3.62,9.26,2,8.88,33.26H238l-6.39-27.07c-1-3.55-5.08-2.84-5.13.34-.05,2.48,0,26.75,0,26.75Z" transform="translate(-208.58 -348.52)"/><path class="cls-1" d="M350.39,383.54l-9-2.44c5.94-1.66,10-3.71,10-11V359.58h0a10.18,10.18,0,0,0-10.17-10.19h-30.8v67.29h17.9V390.54c0-4,4.33-4,5.08-1l6.28,27.18h19.22Zm-15.67-12.62a3.16,3.16,0,0,1-3.14,3.14h-.08a3.16,3.16,0,0,1-3.14-3.14v-6.11a3.15,3.15,0,0,1,3.14-3.13h.08a3.14,3.14,0,0,1,3.14,3.13Zm6.71,10.17h0" transform="translate(-208.58 -348.52)"/><path class="cls-1" d="M288.25,348.52h-13a14.83,14.83,0,0,0-14.79,14.79v39.46a14.84,14.84,0,0,0,14.79,14.8h13a14.86,14.86,0,0,0,14.8-14.8V363.31a14.84,14.84,0,0,0-14.8-14.79M285.52,399a3.81,3.81,0,0,1-7.61,0V367.88a3.81,3.81,0,1,1,7.61,0Z" transform="translate(-208.58 -348.52)"/><path class="cls-1" d="M376.7,349.41a14.82,14.82,0,0,0-14.79,14.78v37.69a14.85,14.85,0,0,0,14.79,14.81h27.8V371.51H387.24v27.4a3.79,3.79,0,1,1-7.57,0V367.76a3.85,3.85,0,0,1,3.8-3.87h21v-14.5H376.7Z" transform="translate(-208.58 -348.52)"/><path class="cls-1" d="M215,438.06v6.21h-6.46V425h8.28a13.26,13.26,0,0,1,2.89.31,7.34,7.34,0,0,1,2.53,1.06,5.57,5.57,0,0,1,1.8,2,6.38,6.38,0,0,1,.68,3.12,6.46,6.46,0,0,1-.66,3.05,6,6,0,0,1-1.77,2.05,7.35,7.35,0,0,1-2.54,1.14,11.94,11.94,0,0,1-2.93.36Zm0-8v3.1h1.36a2.62,2.62,0,0,0,1.35-.36,1.33,1.33,0,0,0,.61-1.24,1.49,1.49,0,0,0-.16-.75,1.21,1.21,0,0,0-.45-.45,2,2,0,0,0-.64-.23,3.49,3.49,0,0,0-.71-.07Z" transform="translate(-208.58 -348.52)"/><path class="cls-1" d="M226.26,425h6.54v13.7h6.41v5.59h-13Z" transform="translate(-208.58 -348.52)"/><path class="cls-1" d="M247.27,425h6.9l7.52,19.29h-7.06l-1-2.83h-6.13l-1,2.83h-6.87Zm3.35,6.73L249,436.48h3.14Z" transform="translate(-208.58 -348.52)"/><path class="cls-1" d="M270.68,444.27h-6.49v-7.9L256.92,425h7.82l3.05,5.66,2.92-5.66h7.63l-7.66,11.39Z" transform="translate(-208.58 -348.52)"/><path class="cls-1" d="M279.21,425h13.27v5.39h-7.17V432H292v5.05h-6.73v1.79h7.63v5.4H279.21Z" transform="translate(-208.58 -348.52)"/><path class="cls-1" d="M295.37,425h8.31a14.19,14.19,0,0,1,2.82.28,7.24,7.24,0,0,1,2.51,1,5.46,5.46,0,0,1,1.78,1.94,6.15,6.15,0,0,1,.68,3,5.47,5.47,0,0,1-3.37,5.21l4.9,7.82h-7.45l-3.7-6.89h-.19v6.89h-6.29Zm6.24,8.14h1.27a4.63,4.63,0,0,0,.71-.05,2.15,2.15,0,0,0,.73-.23,1.59,1.59,0,0,0,.57-.49,1.34,1.34,0,0,0,.23-.83,1.49,1.49,0,0,0-.19-.82,1.22,1.22,0,0,0-.48-.45,2,2,0,0,0-.65-.19,5.14,5.14,0,0,0-.65,0h-1.54Z" transform="translate(-208.58 -348.52)"/><path class="cls-1" d="M331.31,444.27h-6.54L319.51,425h6.87l2.07,10.84h.11L330.79,425h6.79L340,435.82h.11l2.1-10.84h6.65l-5.37,19.29H337l-2.73-10.9h-.1Z" transform="translate(-208.58 -348.52)"/><path class="cls-1" d="M350,425h13.27v5.39h-7.16V432h6.73v5.05h-6.73v1.79h7.63v5.4H350Z" transform="translate(-208.58 -348.52)"/><path class="cls-1" d="M371.77,425h6.9l7.52,19.29h-7.06l-1-2.83H372l-.95,2.83h-6.87Zm3.36,6.73-1.58,4.77h3.13Z" transform="translate(-208.58 -348.52)"/><path class="cls-1" d="M386.87,425h8.31a14,14,0,0,1,2.82.28,7.16,7.16,0,0,1,2.51,1,5.46,5.46,0,0,1,1.78,1.94,6,6,0,0,1,.68,3,5.47,5.47,0,0,1-3.37,5.21l4.9,7.82h-7.45l-3.7-6.89h-.19v6.89h-6.29Zm6.24,8.14h1.27a4.67,4.67,0,0,0,.72-.05,2.3,2.3,0,0,0,.73-.23,1.77,1.77,0,0,0,.57-.49,1.4,1.4,0,0,0,.22-.83,1.58,1.58,0,0,0-.18-.82,1.24,1.24,0,0,0-.49-.45,2,2,0,0,0-.65-.19,5,5,0,0,0-.65,0h-1.54Z" transform="translate(-208.58 -348.52)"/><polygon class="cls-2" points="42.09 82.43 43.03 85.07 45.84 85.15 43.61 86.86 44.41 89.55 42.09 87.96 39.78 89.55 40.58 86.86 38.35 85.15 41.16 85.07 42.09 82.43"/></svg>