<svg id="Layer_1" data-name="Layer 1" xmlns="http://www.w3.org/2000/svg" viewBox="0 0 391.72 138.06"><defs><style>.cls-1{fill:#fff;}</style></defs><title>korg-logo-white</title><path class="cls-1" d="M57.79,373.39V238.91H93.65v47.82c0,5.62,6.74,4.39,7.57.64l12.38-48.46h34.83l-13.72,56.71L119,302.86l18.51,4,17.76,66.49H116.58L103.8,319.24c-1.94-7.11-10.15-5.68-10.26.68-.09,4.95,0,53.47,0,53.47Z" transform="translate(-57.79 -237.12)"/><path class="cls-1" d="M341.33,307.13l-17.92-4.87c11.88-3.31,20-7.42,20-22.08V259.24h0a20.36,20.36,0,0,0-20.36-20.37H261.49V373.39h35.79V321.13c0-8.06,8.65-8,10.15-2.08L320,373.39h38.41ZM310,281.91a6.3,6.3,0,0,1-6.28,6.27h-.17a6.29,6.29,0,0,1-6.27-6.27V269.7a6.29,6.29,0,0,1,6.27-6.27h.17A6.3,6.3,0,0,1,310,269.7Zm13.41,20.34h0" transform="translate(-57.79 -237.12)"/><path class="cls-1" d="M217.09,237.12H191.16a29.67,29.67,0,0,0-29.58,29.58v78.89a29.67,29.67,0,0,0,29.58,29.58h25.93a29.67,29.67,0,0,0,29.58-29.58V266.7a29.67,29.67,0,0,0-29.58-29.58m-5.46,101a7.61,7.61,0,1,1-15.22,0v-62.3a7.61,7.61,0,1,1,15.22,0Z" transform="translate(-57.79 -237.12)"/><path class="cls-1" d="M393.93,238.91a29.64,29.64,0,0,0-29.58,29.55V343.8a29.7,29.7,0,0,0,29.58,29.62h55.58V283.08H415v54.79a7.57,7.57,0,1,1-15.14,0V275.58a7.68,7.68,0,0,1,7.61-7.72h42v-29H393.93Z" transform="translate(-57.79 -237.12)"/></svg>