<?xml version="1.0" standalone="no"?>
<!DOCTYPE svg PUBLIC "-//W3C//DTD SVG 20010904//EN"
 "http://www.w3.org/TR/2001/REC-SVG-20010904/DTD/svg10.dtd">
<svg version="1.0" xmlns="http://www.w3.org/2000/svg"
 width="700.000000pt" height="700.000000pt" viewBox="0 0 700.000000 700.000000"
 preserveAspectRatio="xMidYMid meet">
<metadata>
Created by potrace 1.14, written by Peter Selinger 2001-2017
</metadata>
<g transform="translate(0.000000,700.000000) scale(0.100000,-0.100000)"
fill="#000000" stroke="none">
<path d="M2370 6934 c-183 -50 -267 -75 -550 -169 -283 -94 -267 -89 -295
-100 -11 -4 -60 -24 -110 -43 -212 -82 -422 -195 -513 -276 -148 -134 -353
-674 -447 -1181 -12 -65 -25 -147 -30 -195 -3 -30 -8 -66 -10 -80 -2 -14 -7
-50 -10 -80 -3 -30 -8 -71 -11 -90 -2 -19 -6 -53 -9 -75 -2 -22 -13 -114 -24
-205 -11 -91 -23 -190 -27 -220 -3 -30 -8 -66 -10 -80 -2 -14 -7 -68 -11 -120
-5 -85 -3 -101 17 -147 36 -85 130 -159 321 -253 200 -98 491 -182 717 -206
32 -3 60 -8 63 -10 19 -11 14 -1908 -6 -2629 -6 -211 3 -254 73 -324 108 -108
381 -223 700 -295 59 -13 127 -27 152 -31 24 -4 47 -8 50 -10 3 -1 32 -6 65
-10 32 -3 62 -8 65 -10 3 -1 36 -6 75 -10 38 -4 72 -8 75 -10 3 -2 48 -6 101
-9 52 -4 104 -8 114 -10 129 -24 1008 -25 1205 -1 19 2 67 7 105 10 39 3 86 7
105 10 19 3 58 7 85 10 28 3 79 10 115 16 36 6 80 13 99 15 19 3 55 9 80 15
25 6 57 13 71 15 14 3 41 9 60 14 19 5 46 11 60 14 96 18 354 110 446 159 110
58 130 72 174 116 72 72 79 105 75 323 -14 659 -18 1012 -17 1528 0 859 2
1099 10 1104 4 2 31 7 61 10 30 4 64 9 75 11 12 2 37 7 56 10 50 7 92 15 112
21 9 3 26 7 38 9 115 22 323 97 455 163 121 60 275 165 275 187 0 4 10 21 22
38 19 26 22 45 23 116 0 84 -3 125 -25 301 -6 47 -13 103 -16 125 -2 22 -6 56
-9 75 -2 19 -7 58 -10 85 -3 28 -7 66 -10 85 -3 19 -7 55 -10 80 -18 154 -35
286 -40 320 -12 72 -25 148 -30 170 -3 14 -8 39 -11 55 -64 357 -266 898 -389
1043 -61 72 -265 196 -460 279 -208 88 -681 248 -960 324 -231 62 -274 66
-349 29 -60 -29 -101 -72 -131 -137 -54 -120 -116 -213 -177 -269 -145 -133
-345 -197 -588 -189 -149 4 -170 8 -278 45 -137 46 -250 128 -336 244 -34 45
-44 64 -93 176 -24 55 -75 106 -129 131 -70 32 -126 30 -264 -7z"/>
</g>
</svg>
