<svg id="Layer_1" data-name="Layer 1" xmlns="http://www.w3.org/2000/svg" viewBox="0 0 300 56"><defs><style>.cls-1{fill:#ffffff;}</style></defs><title>TASCAM-logo-300-56-rev1</title><path class="cls-1" d="M111.892,34.48a16.475,16.475,0,0,0,16.41,5.484c2.349-.653,4.553-1.278,5.292-3.108a3.824,3.824,0,0,0-.346-2.951,4.109,4.109,0,0,0-2.761-1.534c-7.17-1.533-16.063.423-21.277-5.866a9.056,9.056,0,0,1-1.267-7.244c1.536-5.6,7.515-7.132,12.616-7.669,7.091-.536,13.724,1.3,18.863,6.134l-5.139,4.561c-4.027-4.409-10.581-4.83-16.1-3.449a4.967,4.967,0,0,0-2.528,1.918,1.9,1.9,0,0,0,.191,2.031c1.42,1.379,3.45,1.226,5.29,1.611,7.322,1.225,17.176-.078,19.937,8.587a9.77,9.77,0,0,1-2,8.969c-3.39,3.4-8.2,4.333-13.034,4.832-7.475.269-15.526-1.381-20.049-8.167Zm67.9-13.035c-3.528-6.441-10.582-9.816-17.675-9.661-6.979.307-13.65,3.527-16.983,9.891A17.292,17.292,0,0,0,145.44,37.7c3.527,6.286,10.5,9.278,17.175,8.971A19.944,19.944,0,0,0,180.29,36.357l-7.057-2.145a13.067,13.067,0,0,1-7.744,5.558c-4.867,1.037-10.312-.345-13.15-4.791a10.885,10.885,0,0,1-.651-10.238,12.147,12.147,0,0,1,11.54-6.517c4.063-.039,7.55,2.532,9.853,5.636l6.71-2.415M74.534,19.471V12.617l-33.03.01V19.49l12.461-.019V45.444h8.242V19.471ZM84.588,38.886l10.554.019,2.948,6.539h8.665L91.5,12.522l-8.9-.011L66.769,45.521h8.588l3.22-6.671,6.011.02V31.724l-2.6,0,4.984-10.773,4.909,10.792-7.294,0Zm110.647-.152H205.7l3.806,6.787,8.7.021L203.022,12.588h-9.086L178.092,45.542h8.723l3.258-6.808h5.162v-7l-2.046,0,5.175-10.878,4.812,10.859-7.941,0Zm24.31,6.71h7.573V24.406l8.53,20.894h6.277l8.628-20.653v20.8h7.666V12.521H248.06L238.86,35l-9.3-22.523H219.545Zm45.522-.914a3.51,3.51,0,1,1,3.51-3.509,3.508,3.508,0,0,1-3.51,3.509m-3.987-3.509a3.988,3.988,0,1,0,3.987-3.986,3.988,3.988,0,0,0-3.987,3.986m2.7-.184V39.648h2.077c.484.02.866.181.866.607s-.3.565-.746.582Zm1.855.548.968,1.651h.687l-.99-1.673a1.069,1.069,0,0,0,.967-1.108,1.174,1.174,0,0,0-1.329-1.131h-2.724v3.912h.566V41.385Z"/></svg>
