<svg id="Layer_1" data-name="Layer 1" xmlns="http://www.w3.org/2000/svg" viewBox="0 0 205.71 58.06"><defs><style>.cls-1{fill:#fff;}.cls-2{fill:#231f20;}</style></defs><title>TASCAM-PW</title><path class="cls-1" d="M215,438.06v6.21h-6.46V425h8.28a13.26,13.26,0,0,1,2.89.31,7.34,7.34,0,0,1,2.53,1.06,5.57,5.57,0,0,1,1.8,2,6.38,6.38,0,0,1,.68,3.12,6.46,6.46,0,0,1-.66,3.05,6,6,0,0,1-1.77,2.05,7.35,7.35,0,0,1-2.54,1.14,11.94,11.94,0,0,1-2.93.36Zm0-8v3.1h1.36a2.62,2.62,0,0,0,1.35-.36,1.33,1.33,0,0,0,.61-1.24,1.49,1.49,0,0,0-.16-.75,1.21,1.21,0,0,0-.45-.45,2,2,0,0,0-.64-.23,3.49,3.49,0,0,0-.71-.07Z" transform="translate(-208.58 -386.21)"/><path class="cls-1" d="M226.26,425h6.54v13.7h6.41v5.59h-13Z" transform="translate(-208.58 -386.21)"/><path class="cls-1" d="M247.27,425h6.9l7.52,19.29h-7.06l-1-2.83h-6.13l-1,2.83h-6.87Zm3.35,6.73L249,436.48h3.14Z" transform="translate(-208.58 -386.21)"/><path class="cls-1" d="M270.68,444.27h-6.49v-7.9L256.92,425h7.82l3.05,5.66,2.92-5.66h7.63l-7.66,11.39Z" transform="translate(-208.58 -386.21)"/><path class="cls-1" d="M279.21,425h13.27v5.39h-7.17V432H292v5.05h-6.73v1.79h7.63v5.4H279.21Z" transform="translate(-208.58 -386.21)"/><path class="cls-1" d="M295.37,425h8.31a14.19,14.19,0,0,1,2.82.28,7.24,7.24,0,0,1,2.51,1,5.46,5.46,0,0,1,1.78,1.94,6.15,6.15,0,0,1,.68,3,5.47,5.47,0,0,1-3.37,5.21l4.9,7.82h-7.45l-3.7-6.89h-.19v6.89h-6.29Zm6.24,8.14h1.27a4.63,4.63,0,0,0,.71-.05,2.15,2.15,0,0,0,.73-.23,1.59,1.59,0,0,0,.57-.49,1.34,1.34,0,0,0,.23-.83,1.49,1.49,0,0,0-.19-.82,1.22,1.22,0,0,0-.48-.45,2,2,0,0,0-.65-.19,5.14,5.14,0,0,0-.65,0h-1.54Z" transform="translate(-208.58 -386.21)"/><path class="cls-1" d="M331.31,444.27h-6.54L319.51,425h6.87l2.07,10.84h.11L330.79,425h6.79L340,435.82h.11l2.1-10.84h6.65l-5.37,19.29H337l-2.73-10.9h-.1Z" transform="translate(-208.58 -386.21)"/><path class="cls-1" d="M350,425h13.27v5.39h-7.16V432h6.73v5.05h-6.73v1.79h7.63v5.4H350Z" transform="translate(-208.58 -386.21)"/><path class="cls-1" d="M371.77,425h6.9l7.52,19.29h-7.06l-1-2.83H372l-.95,2.83h-6.87Zm3.36,6.73-1.58,4.77h3.13Z" transform="translate(-208.58 -386.21)"/><path class="cls-1" d="M386.87,425h8.31a14,14,0,0,1,2.82.28,7.16,7.16,0,0,1,2.51,1,5.46,5.46,0,0,1,1.78,1.94,6,6,0,0,1,.68,3,5.47,5.47,0,0,1-3.37,5.21l4.9,7.82h-7.45l-3.7-6.89h-.19v6.89h-6.29Zm6.24,8.14h1.27a4.67,4.67,0,0,0,.72-.05,2.3,2.3,0,0,0,.73-.23,1.77,1.77,0,0,0,.57-.49,1.4,1.4,0,0,0,.22-.83,1.58,1.58,0,0,0-.18-.82,1.24,1.24,0,0,0-.49-.45,2,2,0,0,0-.65-.19,5,5,0,0,0-.65,0h-1.54Z" transform="translate(-208.58 -386.21)"/><polygon class="cls-2" points="42.09 44.74 43.03 47.39 45.84 47.46 43.61 49.17 44.41 51.86 42.09 50.27 39.78 51.86 40.58 49.17 38.35 47.46 41.16 47.39 42.09 44.74"/><path class="cls-1" d="M272.3,407a14.91,14.91,0,0,0,14.83,4.95c2.12-.59,4.11-1.15,4.78-2.81a3.42,3.42,0,0,0-.32-2.66,3.68,3.68,0,0,0-2.49-1.39c-6.48-1.38-14.51.38-19.22-5.3a8.2,8.2,0,0,1-1.15-6.54c1.39-5.06,6.79-6.45,11.4-6.93,6.41-.49,12.4,1.18,17,5.54L292.53,396c-3.64-4-9.56-4.36-14.55-3.12a4.55,4.55,0,0,0-2.28,1.74,1.7,1.7,0,0,0,.17,1.83c1.28,1.25,3.12,1.11,4.78,1.46,6.61,1.1,15.52-.07,18,7.76a8.82,8.82,0,0,1-1.8,8.1c-3.06,3.07-7.41,3.91-11.78,4.36-6.75.25-14-1.24-18.11-7.37Zm61.34-11.78c-3.18-5.82-9.56-8.87-16-8.73s-12.34,3.19-15.35,8.94a15.62,15.62,0,0,0,.28,14.47c3.19,5.68,9.49,8.39,15.52,8.11a18,18,0,0,0,16-9.32l-6.38-1.94a11.8,11.8,0,0,1-7,5c-4.39.93-9.31-.32-11.88-4.33a9.82,9.82,0,0,1-.58-9.25,10.94,10.94,0,0,1,10.42-5.89c3.67,0,6.82,2.29,8.9,5.09l6.06-2.18m-95.09-1.78v-6.2H208.71v6.2H220v23.46h7.44V393.41ZM247.63,411h9.54l2.66,5.91h7.83l-13.78-29.74h-8l-14.31,29.82h7.76l2.91-6,5.43,0v-6.45h-2.35l4.51-9.73,4.43,9.75h-6.59Zm100-.14h9.45l3.44,6.13,7.86,0-13.72-29.77h-8.21L332.11,417H340l2.94-6.15h4.67v-6.32h-1.85l4.67-9.83,4.35,9.81H347.6Zm22,6.06h6.84v-19l7.71,18.88h5.67l7.79-18.66v18.79h6.93V387.13h-9.18L387,407.43l-8.4-20.35h-9.05Zm41.13-.82a3.18,3.18,0,1,1,3.17-3.17,3.17,3.17,0,0,1-3.17,3.17m-3.6-3.17a3.6,3.6,0,1,0,3.6-3.61,3.6,3.6,0,0,0-3.6,3.61m2.43-.17v-1.08h1.88c.44,0,.78.17.78.55s-.27.51-.67.53Zm1.68.49.87,1.5h.62l-.89-1.52a1,1,0,0,0,.87-1,1.06,1.06,0,0,0-1.2-1H409v3.54h.51v-1.5Z" transform="translate(-208.58 -386.21)"/></svg>