<svg id="Layer_1" data-name="Layer 1" xmlns="http://www.w3.org/2000/svg" viewBox="0 0 195.92 97.36"><defs><style>.cls-1{fill:#fff;}.cls-2{fill:#231f20;}</style></defs><title>Vox-PW</title><path class="cls-1" d="M305.52,369.91h0Z" transform="translate(-208.58 -347.91)"/><path class="cls-1" d="M392.81,369.63h0c-3.63-2.32-17.28-10-27.57-12.25l-.12,0-2.8,6.86-.07.07A190.86,190.86,0,0,0,330.61,359v-.08a44.19,44.19,0,0,1,2.09-8.7s-8.56-2.31-25.33-2.31h-1.62c-16.76,0-25.33,2.31-25.33,2.31a43.51,43.51,0,0,1,2.08,8.7V359a190.59,190.59,0,0,0-31.61,5.36l-.08-.07-2.8-6.86-.11,0c-10.3,2.29-24,9.93-27.58,12.25h0c1.37,2,2.66,4.09,3.86,6.22h0l.06.07a268.44,268.44,0,0,1,164.68,0l.06-.07h0C390.16,373.72,391.44,371.64,392.81,369.63Z" transform="translate(-208.58 -347.91)"/><path class="cls-1" d="M306.56,365.37a273.13,273.13,0,0,0-80.87,12.5v.07h0a90.26,90.26,0,0,1,8.38,23.68h145a90.26,90.26,0,0,1,8.38-23.68h0v-.07A273.07,273.07,0,0,0,306.56,365.37Zm75.84,13c-3.23,6.4-4.28,13.24-5.63,20.4H236.36c-1.36-7.16-2.41-14-5.64-20.4h0c24.35-5.8,49.74-8.35,75.84-8.42h0c26.1.07,51.5,2.62,75.84,8.42Z" transform="translate(-208.58 -347.91)"/><path class="cls-1" d="M288.19,385.84c0,5.53,8.09,10,18.07,10s18.08-4.49,18.08-10-8.1-10-18.08-10S288.19,380.3,288.19,385.84Zm30.22,0c0,4.28-5.44,7.74-12.14,7.74s-12.15-3.46-12.15-7.74,5.44-7.74,12.15-7.74S318.41,381.57,318.41,385.84Z" transform="translate(-208.58 -347.91)"/><path class="cls-1" d="M326.07,380.1h3a6,6,0,0,1,2.66.54l9.17,5.39.49.29c.42.18.67.4.67.65a.57.57,0,0,1-.28.43l-.61.33L333.86,392a9.39,9.39,0,0,1-3.2.84h-4.5a.94.94,0,1,0,0,1.88h17.49a.94.94,0,1,0,0-1.88h-4.82c-1.84,0,.15-1.1.15-1.1l4.15-2.4.46-.26.3-.16a1.24,1.24,0,0,1,.82-.14.78.78,0,0,1,.42.11l.52.27,4.36,2.57s1.84,1.1.15,1.1h-2.87a.94.94,0,1,0,0,1.88h17.49a.94.94,0,1,0,0-1.88h-2.89a6.45,6.45,0,0,1-2.67-.51l-8.73-5.14-.49-.3c-.42-.17-.67-.4-.67-.64a.6.6,0,0,1,.27-.44l.62-.32,7.71-4.54a4.7,4.7,0,0,1,3.2-.87h3.57a.94.94,0,1,0,0-1.87v0h-17l-.46,0a.94.94,0,1,0,0,1.87h5.6c1.7,0-.14,1.14-.14,1.14l-4.61,2.64-.46.26-.28.13a1.23,1.23,0,0,1-.49.16,1.43,1.43,0,0,1-.74-.12l-.69-.36-4.62-2.71s-1.84-1.14-.15-1.14h2.94a.94.94,0,1,0,0-1.87v0h-17l-.47,0a.94.94,0,1,0,0,1.87Z" transform="translate(-208.58 -347.91)"/><path class="cls-1" d="M288.85,379.15a1,1,0,0,0-1.06-1h-18a1,1,0,1,0,0,1.94h8.05s1.44-.05,1.11.69L269.06,390l-.21.24a.71.71,0,0,1-.48.22.73.73,0,0,1-.52-.26l-.1-.12-9.95-9.24c-.4-.75,1.16-.67,1.16-.67h6.27a1,1,0,1,0,0-2h-21a1,1,0,1,0,0,1.93h3.86c.89,0,.89,0,1.67.71l14.71,13.49a1.86,1.86,0,0,0,.67.15h3.34a1.58,1.58,0,0,0,.56-.15l14.44-13.38.19-.19a1.57,1.57,0,0,1,1.27-.61h2.86A1,1,0,0,0,288.85,379.15Z" transform="translate(-208.58 -347.91)"/><path class="cls-1" d="M340.48,408.54a2.29,2.29,0,0,0-.7-.09h-.48v2.91h.93l.25-.06a.67.67,0,0,0,.2-.12,1.57,1.57,0,0,0,.43-1.28,1.91,1.91,0,0,0-.19-1A.79.79,0,0,0,340.48,408.54Z" transform="translate(-208.58 -347.91)"/><path class="cls-1" d="M280.25,408.41h0v0h-.5v1.15h.5a1.86,1.86,0,0,0,.52-.06.5.5,0,0,0,.27-.18.53.53,0,0,0,.09-.34.56.56,0,0,0-.14-.4A1.08,1.08,0,0,0,280.25,408.41Z" transform="translate(-208.58 -347.91)"/><polygon class="cls-1" points="95.57 62.37 96.56 62.37 96.06 61 95.57 62.37"/><path class="cls-1" d="M344.09,408.17a1.2,1.2,0,0,0-.17.62,1.27,1.27,0,0,0,.17.63,1.22,1.22,0,0,0,.28.32v-1.9A1.12,1.12,0,0,0,344.09,408.17Z" transform="translate(-208.58 -347.91)"/><path class="cls-1" d="M318,408.55a1.11,1.11,0,0,0-.63-.18,1.2,1.2,0,0,0-.47.1,1.07,1.07,0,0,0-.37.27,1.54,1.54,0,0,0-.25.48,2.26,2.26,0,0,0-.09.67,2.4,2.4,0,0,0,.09.69,1.36,1.36,0,0,0,.26.48,1,1,0,0,0,.38.28,1,1,0,0,0,.46.1,1.12,1.12,0,0,0,.6-.16,1.1,1.1,0,0,0,.43-.51,2,2,0,0,0,.17-.88,1.94,1.94,0,0,0-.16-.84A1.05,1.05,0,0,0,318,408.55Z" transform="translate(-208.58 -347.91)"/><path class="cls-1" d="M345.79,407.71a1.2,1.2,0,0,0-.62-.17,1.27,1.27,0,0,0-.63.17l-.15.12h.9a.8.8,0,0,1,.36.07.61.61,0,0,1,.24.21.65.65,0,0,1,.08.31.55.55,0,0,1-.15.38.72.72,0,0,1-.2.14l0,0a1.58,1.58,0,0,1,.19.3l.22.37a1.3,1.3,0,0,0,.18-.23,1.32,1.32,0,0,0,0-1.26A1.24,1.24,0,0,0,345.79,407.71Z" transform="translate(-208.58 -347.91)"/><polygon class="cls-1" points="60.25 62.37 61.24 62.37 60.74 61 60.25 62.37"/><path class="cls-1" d="M234.55,403.82c.37,2.12.67,5.6.89,7.77h0c12.87,2.84,32.78,6.54,71,6.54l.27.07c38.22,0,58.12-3.77,71-6.61v-.42c.22-2.18.52-5.23.9-7.35Zm36.95,8.49a.6.6,0,0,1-.43.18h0a.58.58,0,0,1-.26-.05.65.65,0,0,1-.18-.15,1.86,1.86,0,0,1-.14-.25l-.08-.18h0l0-.05v0l0-.08h0l-.16-.43h-1.71l-.19.52a2.18,2.18,0,0,1-.25.51.5.5,0,0,1-.42.18h0a.6.6,0,0,1-.38-.17.55.55,0,0,1-.19-.41,1,1,0,0,1,0-.24c0-.07.06-.17.11-.29l1.21-3.07c0-.09.07-.19.12-.32a1.69,1.69,0,0,1,.17-.33.75.75,0,0,1,.66-.34h0a.9.9,0,0,1,.4.09,1,1,0,0,1,.26.24,1.59,1.59,0,0,1,.15.29l.15.36,1.23,3.05a1.51,1.51,0,0,1,.15.56A.56.56,0,0,1,271.5,412.31Zm5.71-4.24v3.74a.7.7,0,0,1-.16.5.55.55,0,0,1-.43.18h0a.54.54,0,0,1-.4-.18.7.7,0,0,1-.16-.5v-2.08l-.47,1.86c-.05.2-.09.34-.12.44a.74.74,0,0,1-.22.31.61.61,0,0,1-.44.15.71.71,0,0,1-.36-.09.59.59,0,0,1-.23-.24,1.39,1.39,0,0,1-.12-.28c0-.07,0-.14-.05-.21h0l0-.07h0l0-.08h0l-.45-1.78v2.08a.7.7,0,0,1-.16.5.56.56,0,0,1-.42.18h0a.54.54,0,0,1-.4-.18.7.7,0,0,1-.16-.5v-3.74a.63.63,0,0,1,.22-.54,1,1,0,0,1,.52-.13h.3a1.14,1.14,0,0,1,.44.06.49.49,0,0,1,.26.25,3.64,3.64,0,0,1,.14.43l.54,2.05.54-2.05a3.64,3.64,0,0,1,.14-.43.46.46,0,0,1,.26-.25,1.14,1.14,0,0,1,.44-.06h.3a1,1,0,0,1,.52.13.62.62,0,0,1,.22.54Zm5.17.9h0v.08h0a1.45,1.45,0,0,1-.49,1.12,2.18,2.18,0,0,1-1.42.4h-.73v1.19a.81.81,0,0,1-.17.54.62.62,0,0,1-.45.19h0a.6.6,0,0,1-.44-.19.78.78,0,0,1-.17-.52h0v-3.64a.71.71,0,0,1,.19-.55.8.8,0,0,1,.56-.18h1.23a3.44,3.44,0,0,1,.88.09,1.34,1.34,0,0,1,.55.3,1.32,1.32,0,0,1,.36.51,1.58,1.58,0,0,1,.12.66Zm4.75,2.91V412h0a.52.52,0,0,1-.16.31.7.7,0,0,1-.46.14h-2.31a.64.64,0,0,1-.73-.73v-3.63a.8.8,0,0,1,.17-.54.6.6,0,0,1,.44-.19h0a.6.6,0,0,1,.45.19.78.78,0,0,1,.17.54v3.28h1.79a.71.71,0,0,1,.46.15.52.52,0,0,1,.17.39Zm2.21-.12a.78.78,0,0,1-.17.54.6.6,0,0,1-.45.19h0a.59.59,0,0,1-.43-.19.8.8,0,0,1-.17-.54v-3.71a.8.8,0,0,1,.17-.54.6.6,0,0,1,.44-.19h0a.6.6,0,0,1,.45.19.78.78,0,0,1,.17.54Zm4.93-3.85v0h0a.5.5,0,0,1-.16.34.53.53,0,0,1-.35.14h-1.82v.91h1.43a.61.61,0,0,1,.42.14.47.47,0,0,1,.16.37h0v.09h0a.48.48,0,0,1-.15.28.61.61,0,0,1-.42.14h-1.43v1.4a.78.78,0,0,1-.17.54.6.6,0,0,1-.45.19h0a.59.59,0,0,1-.43-.19.8.8,0,0,1-.17-.54v-3.63a.87.87,0,0,1,.08-.4.55.55,0,0,1,.26-.26.94.94,0,0,1,.39-.07h2.26a.62.62,0,0,1,.43.14.47.47,0,0,1,.16.37Zm2.18,3.85a.78.78,0,0,1-.17.54.6.6,0,0,1-.46.19h0a.57.57,0,0,1-.43-.19.8.8,0,0,1-.17-.54v-3.71a.8.8,0,0,1,.17-.54.6.6,0,0,1,.44-.19h0a.6.6,0,0,1,.46.19.78.78,0,0,1,.17.54Zm5.56-1a1.25,1.25,0,0,1-.13.54,2.09,2.09,0,0,1-.37.56,2.06,2.06,0,0,1-.66.44,2.21,2.21,0,0,1-.91.17h0a3.11,3.11,0,0,1-.71-.07,2,2,0,0,1-.6-.24,2,2,0,0,1-.5-.43,2.3,2.3,0,0,1-.33-.52,2.39,2.39,0,0,1-.21-.62,3.14,3.14,0,0,1-.07-.7,3.29,3.29,0,0,1,.17-1.07,2.37,2.37,0,0,1,.51-.82,2.23,2.23,0,0,1,.77-.52,2.51,2.51,0,0,1,1-.18,2.38,2.38,0,0,1,1.08.24,2.16,2.16,0,0,1,.74.61,1.3,1.3,0,0,1,.26.73v0h0a.55.55,0,0,1-.53.53h0a.52.52,0,0,1-.37-.13,1.42,1.42,0,0,1-.24-.34,1.26,1.26,0,0,0-.39-.47,1,1,0,0,0-.54-.15,1,1,0,0,0-.82.39,1.88,1.88,0,0,0-.32,1.19,2.25,2.25,0,0,0,.14.85,1,1,0,0,0,.38.48,1,1,0,0,0,.59.16,1,1,0,0,0,.61-.18,1.14,1.14,0,0,0,.38-.53,1.08,1.08,0,0,1,.17-.34.48.48,0,0,1,.39-.18h0a.55.55,0,0,1,.39.16.56.56,0,0,1,.17.4Zm5,1.16h0a.55.55,0,0,1-.18.37.57.57,0,0,1-.43.18h0a.58.58,0,0,1-.26-.05.65.65,0,0,1-.18-.15,1.17,1.17,0,0,1-.14-.25,1.42,1.42,0,0,1-.08-.18h0l-.05-.11v0h0l-.16-.43h-1.72l-.19.52a2.24,2.24,0,0,1-.24.51.5.5,0,0,1-.42.18h0a.6.6,0,0,1-.38-.17.54.54,0,0,1-.19-.4v0a1,1,0,0,1,0-.23,3.05,3.05,0,0,1,.11-.29l1.21-3.07.12-.32a1.69,1.69,0,0,1,.17-.33.75.75,0,0,1,.66-.34h0a.83.83,0,0,1,.39.09.9.9,0,0,1,.27.24,1.59,1.59,0,0,1,.15.29c0,.09.09.21.14.36l1.24,3.05a1.74,1.74,0,0,1,.15.56Zm4.61-3.91h0a.48.48,0,0,1-.17.31.7.7,0,0,1-.46.14h-.9v3.28a.78.78,0,0,1-.17.54.56.56,0,0,1-.44.19h0a.57.57,0,0,1-.45-.19.75.75,0,0,1-.17-.54v-3.28h-.9a.7.7,0,0,1-.46-.14.52.52,0,0,1-.17-.39h0a.5.5,0,0,1,.18-.4.66.66,0,0,1,.45-.14h3a.68.68,0,0,1,.47.15.51.51,0,0,1,.16.39h0Zm2.16,3.73a.78.78,0,0,1-.17.54.6.6,0,0,1-.46.19h0a.6.6,0,0,1-.44-.19.69.69,0,0,1-.17-.45h0V408a.79.79,0,0,1,.17-.53.57.57,0,0,1,.43-.19h0a.57.57,0,0,1,.45.19.74.74,0,0,1,.18.54Zm6.06-1.84h0a3.31,3.31,0,0,1-.15,1,2.44,2.44,0,0,1-.48.83,2.18,2.18,0,0,1-.78.54,2.78,2.78,0,0,1-1,.18h0a2.68,2.68,0,0,1-1-.19,2,2,0,0,1-.78-.54,2.35,2.35,0,0,1-.48-.83,3.42,3.42,0,0,1-.15-1h0v0a3.09,3.09,0,0,1,.16-1,2.35,2.35,0,0,1,.48-.83,2.18,2.18,0,0,1,.78-.52,2.73,2.73,0,0,1,1-.18,2.59,2.59,0,0,1,1.33.32,2,2,0,0,1,.86.91,3.11,3.11,0,0,1,.28,1.34h0Zm5.19,1.8c0,.46-.24.77-.66.77a.82.82,0,0,1-.28,0,1,1,0,0,1-.24-.15,1,1,0,0,1-.19-.21,1.88,1.88,0,0,1-.16-.23L322,409.53v2.34h0a.68.68,0,0,1-.16.44.56.56,0,0,1-.42.18h0v-.08h0v.07h0a.57.57,0,0,1-.41-.19.7.7,0,0,1-.16-.5v-3.64a1.29,1.29,0,0,1,.06-.42.59.59,0,0,1,.26-.3.64.64,0,0,1,.38-.12h0a.67.67,0,0,1,.28.06.66.66,0,0,1,.2.14.89.89,0,0,1,.16.21l.15.23,1.57,2.37V408a.75.75,0,0,1,.15-.5.52.52,0,0,1,.42-.19h0a.53.53,0,0,1,.43.19.7.7,0,0,1,.16.5Zm7.42.24h0a.48.48,0,0,1-.17.31.65.65,0,0,1-.44.14H329.5a.64.64,0,0,1-.73-.73v-3.63a.8.8,0,0,1,.17-.54.57.57,0,0,1,.43-.19h0a.6.6,0,0,1,.46.19.82.82,0,0,1,.17.45h0v3.37h1.79a.66.66,0,0,1,.45.15.53.53,0,0,1,.18.39h0Zm4.74-4V408h0a.48.48,0,0,1-.17.31.7.7,0,0,1-.46.14h-.9v3.28a.73.73,0,0,1-.17.54.56.56,0,0,1-.44.19h0a.6.6,0,0,1-.45-.19.77.77,0,0,1-.17-.53h0v-3.28h-.9a.7.7,0,0,1-.46-.14.52.52,0,0,1-.17-.39h0a.5.5,0,0,1,.18-.4.66.66,0,0,1,.45-.14h3a.67.67,0,0,1,.47.15.52.52,0,0,1,.17.39Zm5.12,2.76a2.66,2.66,0,0,1-.25.67,2,2,0,0,1-.42.54,1.61,1.61,0,0,1-.45.3,1.91,1.91,0,0,1-.53.16,3.7,3.7,0,0,1-.6,0H338.8a.86.86,0,0,1-.47-.1.57.57,0,0,1-.24-.31,1.62,1.62,0,0,1,0-.41v-3.46a.76.76,0,0,1,.18-.55.75.75,0,0,1,.55-.18H340a3.75,3.75,0,0,1,.87.09,1.93,1.93,0,0,1,.69.37,2.55,2.55,0,0,1,.78,2h0A4.07,4.07,0,0,1,342.3,410.7Zm2.47,1h0a.62.62,0,0,1-.21.45.7.7,0,0,1-.47.19h0v-.09l0,.08,0-.07v.08h0a.66.66,0,0,1-.45-.17.65.65,0,0,1-.22-.51h0a.7.7,0,0,1,.69-.69h0a.67.67,0,0,1,.48.2.69.69,0,0,1,.21.49h0Zm1.9-2.06a1.68,1.68,0,0,1-.63.64,1.78,1.78,0,0,1-1.75,0,1.68,1.68,0,0,1-.63-.64,1.65,1.65,0,0,1-.24-.87,1.76,1.76,0,0,1,.87-1.51,1.78,1.78,0,0,1,.88-.23,1.7,1.7,0,0,1,.67.13,1.79,1.79,0,0,1,.56.38,1.52,1.52,0,0,1,.37.56,1.67,1.67,0,0,1,.14.67A1.65,1.65,0,0,1,346.67,409.66Z" transform="translate(-208.58 -347.91)"/><path class="cls-1" d="M345.36,408.55s.05,0,.06-.13a.13.13,0,0,0-.06-.09.35.35,0,0,0-.22-.05h-.24v.31h.2A.69.69,0,0,0,345.36,408.55Z" transform="translate(-208.58 -347.91)"/><path class="cls-1" d="M345.47,409.72l-.15-.29a2.4,2.4,0,0,0-.16-.27.27.27,0,0,0-.11-.09.29.29,0,0,0-.14,0h0v.72h-.49a.53.53,0,0,0,.14.11,1.2,1.2,0,0,0,.62.17,1.24,1.24,0,0,0,.63-.17.69.69,0,0,0,.13-.11h-.44Z" transform="translate(-208.58 -347.91)"/><path class="cls-1" d="M215,439.06v6.21h-6.46V426h8.28a13.26,13.26,0,0,1,2.89.31,7.34,7.34,0,0,1,2.53,1.06,5.57,5.57,0,0,1,1.8,2,6.38,6.38,0,0,1,.68,3.12,6.46,6.46,0,0,1-.66,3.05,6,6,0,0,1-1.77,2.05,7.35,7.35,0,0,1-2.54,1.14,11.94,11.94,0,0,1-2.93.36Zm0-8v3.1h1.36a2.62,2.62,0,0,0,1.35-.36,1.33,1.33,0,0,0,.61-1.24,1.49,1.49,0,0,0-.16-.75,1.21,1.21,0,0,0-.45-.45,2,2,0,0,0-.64-.23,3.49,3.49,0,0,0-.71-.07Z" transform="translate(-208.58 -347.91)"/><path class="cls-1" d="M226.26,426h6.54v13.7h6.41v5.59h-13Z" transform="translate(-208.58 -347.91)"/><path class="cls-1" d="M247.27,426h6.9l7.52,19.29h-7.06l-1-2.83h-6.13l-1,2.83h-6.87Zm3.35,6.73L249,437.48h3.14Z" transform="translate(-208.58 -347.91)"/><path class="cls-1" d="M270.68,445.27h-6.49v-7.9L256.92,426h7.82l3.05,5.66,2.92-5.66h7.63l-7.66,11.39Z" transform="translate(-208.58 -347.91)"/><path class="cls-1" d="M279.21,426h13.27v5.39h-7.17V433H292v5.05h-6.73v1.79h7.63v5.4H279.21Z" transform="translate(-208.58 -347.91)"/><path class="cls-1" d="M295.37,426h8.31a14.19,14.19,0,0,1,2.82.28,7.24,7.24,0,0,1,2.51,1,5.46,5.46,0,0,1,1.78,1.94,6.15,6.15,0,0,1,.68,3,5.47,5.47,0,0,1-3.37,5.21l4.9,7.82h-7.45l-3.7-6.89h-.19v6.89h-6.29Zm6.24,8.14h1.27a4.63,4.63,0,0,0,.71-.05,2.15,2.15,0,0,0,.73-.23,1.59,1.59,0,0,0,.57-.49,1.34,1.34,0,0,0,.23-.83,1.49,1.49,0,0,0-.19-.82,1.22,1.22,0,0,0-.48-.45,2,2,0,0,0-.65-.19,5.14,5.14,0,0,0-.65,0h-1.54Z" transform="translate(-208.58 -347.91)"/><path class="cls-1" d="M331.31,445.27h-6.54L319.51,426h6.87l2.07,10.84h.11L330.79,426h6.79L340,436.82h.11l2.1-10.84h6.65l-5.37,19.29H337l-2.73-10.9h-.1Z" transform="translate(-208.58 -347.91)"/><path class="cls-1" d="M350,426h13.27v5.39h-7.16V433h6.73v5.05h-6.73v1.79h7.63v5.4H350Z" transform="translate(-208.58 -347.91)"/><path class="cls-1" d="M371.77,426h6.9l7.52,19.29h-7.06l-1-2.83H372l-.95,2.83h-6.87Zm3.36,6.73-1.58,4.77h3.13Z" transform="translate(-208.58 -347.91)"/><path class="cls-1" d="M386.87,426h8.31a14,14,0,0,1,2.82.28,7.16,7.16,0,0,1,2.51,1,5.46,5.46,0,0,1,1.78,1.94,6,6,0,0,1,.68,3,5.47,5.47,0,0,1-3.37,5.21l4.9,7.82h-7.45l-3.7-6.89h-.19v6.89h-6.29Zm6.24,8.14h1.27a4.67,4.67,0,0,0,.72-.05,2.3,2.3,0,0,0,.73-.23,1.77,1.77,0,0,0,.57-.49,1.4,1.4,0,0,0,.22-.83,1.58,1.58,0,0,0-.18-.82,1.24,1.24,0,0,0-.49-.45,2,2,0,0,0-.65-.19,5,5,0,0,0-.65,0h-1.54Z" transform="translate(-208.58 -347.91)"/><polygon class="cls-2" points="42.09 84.04 43.03 86.69 45.84 86.76 43.61 88.47 44.41 91.16 42.09 89.57 39.78 91.16 40.58 88.47 38.35 86.76 41.16 86.69 42.09 84.04"/></svg>