<svg id="Layer_1" data-name="Layer 1" xmlns="http://www.w3.org/2000/svg" viewBox="0 0 172.5 70.294"><defs><style>.cls-1{fill:#fff;}</style></defs><title>Vox-logo-white</title><path class="cls-1" d="M305.524,369.911c.348,0,.693,0,1.038,0s.692,0,1.037,0Z" transform="translate(-220.312 -347.907)"/><path class="cls-1" d="M392.811,369.627l-.009.011c-3.627-2.315-17.28-9.961-27.571-12.249l-.116.037-2.8,6.861-.076.074A191.216,191.216,0,0,0,330.615,359v-.076a43.91,43.91,0,0,1,2.087-8.7s-8.561-2.316-25.33-2.316H305.75c-16.762,0-25.329,2.316-25.329,2.316a43.706,43.706,0,0,1,2.084,8.7V359a191.112,191.112,0,0,0-31.62,5.361l-.076-.074-2.8-6.861-.113-.037c-10.294,2.288-23.943,9.934-27.575,12.249l-.008-.011q2.049,3.026,3.863,6.224h-.01l.058.073a268.263,268.263,0,0,1,164.679,0l.059-.073h0Q390.759,372.656,392.811,369.627Z" transform="translate(-220.312 -347.907)"/><path class="cls-1" d="M306.562,365.374a272.942,272.942,0,0,0-80.871,12.5l.008.073h-.008a90.533,90.533,0,0,1,8.383,23.676l.009-.007h144.96l0,.007a90.541,90.541,0,0,1,8.387-23.676h-.009l.012-.073A272.981,272.981,0,0,0,306.562,365.374ZM382.4,378.343c-3.224,6.4-4.274,13.233-5.629,20.4H236.356c-1.354-7.166-2.409-14-5.631-20.4l0-.009c24.349-5.8,49.739-8.354,75.84-8.421-.345,0-.69,0-1.038,0H307.6c-.345,0-.69,0-1.037,0,26.1.067,51.5,2.618,75.842,8.421Z" transform="translate(-220.312 -347.907)"/><path class="cls-1" d="M288.186,385.84c0,5.53,8.094,10.021,18.077,10.021s18.08-4.491,18.08-10.021-8.1-10.026-18.08-10.026S288.186,380.3,288.186,385.84Zm30.219,0c0,4.277-5.433,7.743-12.139,7.743s-12.143-3.466-12.143-7.743,5.433-7.744,12.143-7.744S318.4,381.565,318.4,385.84Z" transform="translate(-220.312 -347.907)"/><path class="cls-1" d="M326.073,380.1l.335,0,.472-.008h2.166a6.073,6.073,0,0,1,2.667.54l9.168,5.387.494.3c.416.176.669.4.669.642a.58.58,0,0,1-.281.437l-.613.33-7.291,4.283a9.373,9.373,0,0,1-3.2.839c-.448,0-.885,0-1.282,0l-3.215,0a.942.942,0,1,0,0,1.876l.268,0h17.043l.183,0a.941.941,0,1,0,0-1.876l-4.332,0c-.156,0-.321,0-.489,0-1.843-.009.147-1.1.147-1.1l4.155-2.4.458-.26.3-.161a1.242,1.242,0,0,1,.819-.14.806.806,0,0,1,.418.113l.519.268,4.359,2.568s1.846,1.108.15,1.108h-.125l-.336.006-.97,0-1.437,0a.942.942,0,1,0,0,1.876l.327,0h17.039l.128,0a.942.942,0,1,0,0-1.876l-.429.006h-2.464a6.406,6.406,0,0,1-2.669-.512l-8.731-5.135-.492-.3c-.418-.175-.671-.4-.671-.645a.578.578,0,0,1,.278-.433l.616-.326,7.707-4.537a4.764,4.764,0,0,1,3.206-.872c.684,0,3.568.006,3.568.006a.94.94,0,1,0,0-1.873l.014-.019H347.673l-.466.019a.94.94,0,1,0,0,1.873l2.351-.006h3.256c1.7,0-.147,1.138-.147,1.138l-4.61,2.648-.455.26-.283.124a1.154,1.154,0,0,1-.492.158,1.414,1.414,0,0,1-.735-.115l-.7-.357-4.615-2.713s-1.843-1.137-.15-1.137h2.938a.94.94,0,1,0,0-1.873l.016-.019H326.542l-.469.019a.94.94,0,1,0,0,1.873Z" transform="translate(-220.312 -347.907)"/><path class="cls-1" d="M288.848,379.154a1.014,1.014,0,0,0-1.062-.963l.021-.013H270.249l-.475.007a.977.977,0,1,0,0,1.946l.335,0h6.676l.564,0h.472s1.435-.055,1.108.686l-9.873,9.141-.21.239a.633.633,0,0,1-1-.041l-.1-.113L257.8,380.8c-.4-.757,1.165-.671,1.165-.671l.324,0,5.946,0a.985.985,0,1,0,0-1.962H244.218v0a.972.972,0,1,0,0,1.937s3.2-.006,3.86,0c.894.008.891.008,1.669.7.647.583,11.173,10.242,14.712,13.5a1.928,1.928,0,0,0,.667.146h3.341a1.594,1.594,0,0,0,.562-.15l14.446-13.375.183-.189a1.568,1.568,0,0,1,1.273-.61H286.5l1.291,0A1.016,1.016,0,0,0,288.848,379.154Z" transform="translate(-220.312 -347.907)"/><path class="cls-1" d="M340.484,408.539a2.41,2.41,0,0,0-.7-.088H339.3v2.908h.578c.155,0,.276-.006.359-.013a1.065,1.065,0,0,0,.244-.057.6.6,0,0,0,.206-.118,1.6,1.6,0,0,0,.426-1.284,1.929,1.929,0,0,0-.188-.97A.792.792,0,0,0,340.484,408.539Z" transform="translate(-220.312 -347.907)"/><path class="cls-1" d="M280.254,408.41h-.008v-.044l-.007.045h-.5v1.149h.5a1.745,1.745,0,0,0,.52-.065.512.512,0,0,0,.272-.178.552.552,0,0,0,.09-.334.565.565,0,0,0-.142-.407A1.091,1.091,0,0,0,280.254,408.41Z" transform="translate(-220.312 -347.907)"/><polygon class="cls-1" points="83.841 62.365 84.831 62.365 84.332 60.997 83.841 62.365"/><path class="cls-1" d="M344.088,408.165a1.244,1.244,0,0,0,0,1.252,1.235,1.235,0,0,0,.281.32v-1.894A1.233,1.233,0,0,0,344.088,408.165Z" transform="translate(-220.312 -347.907)"/><path class="cls-1" d="M317.993,408.545a1.16,1.16,0,0,0-.635-.171,1.144,1.144,0,0,0-.47.094,1,1,0,0,0-.365.276,1.351,1.351,0,0,0-.249.475,2.2,2.2,0,0,0-.094.675,2.258,2.258,0,0,0,.094.682,1.389,1.389,0,0,0,.257.488,1.085,1.085,0,0,0,.374.281,1.116,1.116,0,0,0,.467.093,1.088,1.088,0,0,0,1.03-.664,2.376,2.376,0,0,0,.012-1.719A1.1,1.1,0,0,0,317.993,408.545Z" transform="translate(-220.312 -347.907)"/><path class="cls-1" d="M345.794,407.71a1.254,1.254,0,0,0-1.249,0,1.2,1.2,0,0,0-.16.121h.9a.841.841,0,0,1,.362.071.51.51,0,0,1,.237.209.594.594,0,0,1,.08.306.538.538,0,0,1-.149.379.559.559,0,0,1-.2.139.409.409,0,0,1,.039.044,2.191,2.191,0,0,1,.195.3l.216.369a1.361,1.361,0,0,0,.176-.232,1.248,1.248,0,0,0-.452-1.706Z" transform="translate(-220.312 -347.907)"/><polygon class="cls-1" points="48.513 62.365 49.503 62.365 49.003 60.998 48.513 62.365"/><path class="cls-1" d="M234.548,403.818c.371,2.127.677,5.6.9,7.771h-.012c12.866,2.837,32.776,6.542,71,6.542l.266.07c38.222,0,58.129-3.775,70.995-6.612l-.013-.423c.226-2.18.522-5.221.9-7.348Zm36.948,8.494a.6.6,0,0,1-.431.18h0a.57.57,0,0,1-.258-.056.532.532,0,0,1-.186-.15,1.171,1.171,0,0,1-.137-.244l-.078-.181h0l-.021-.055-.009-.02-.032-.08h0l-.16-.421h-1.715l-.189.51a2.218,2.218,0,0,1-.246.515.51.51,0,0,1-.418.181h-.04l0,0a.592.592,0,0,1-.382-.17.553.553,0,0,1-.185-.4.892.892,0,0,1,.038-.246c.025-.073.061-.172.111-.294l1.206-3.064c.035-.087.075-.193.124-.317a1.844,1.844,0,0,1,.169-.336.765.765,0,0,1,.661-.338h.014a.776.776,0,0,1,.664.335,1.66,1.66,0,0,1,.152.282c.038.094.085.216.143.365l1.233,3.044a1.646,1.646,0,0,1,.155.563A.572.572,0,0,1,271.5,412.312Zm5.715-4.24v3.733a.738.738,0,0,1-.157.5.56.56,0,0,1-.429.184H276.6a.546.546,0,0,1-.4-.182.739.739,0,0,1-.16-.5v-2.071l-.467,1.856c-.048.2-.09.342-.123.442a.739.739,0,0,1-.214.31.649.649,0,0,1-.445.15.673.673,0,0,1-.361-.094.658.658,0,0,1-.229-.237,1.116,1.116,0,0,1-.116-.283c-.019-.068-.037-.137-.056-.207h0l-.018-.071,0-.009-.022-.083h0l-.446-1.774v2.071a.743.743,0,0,1-.158.5.565.565,0,0,1-.426.183h-.026a.558.558,0,0,1-.4-.18.739.739,0,0,1-.159-.506v-3.733a.612.612,0,0,1,.225-.539.916.916,0,0,1,.517-.132h.3a1.229,1.229,0,0,1,.44.057.472.472,0,0,1,.26.25,2.8,2.8,0,0,1,.141.432l.543,2.048.543-2.048a2.779,2.779,0,0,1,.14-.432.469.469,0,0,1,.257-.248,1.21,1.21,0,0,1,.444-.059h.3a.9.9,0,0,1,.517.133.6.6,0,0,1,.225.533Zm5.173.893v.085h0a1.462,1.462,0,0,1-.5,1.119,2.165,2.165,0,0,1-1.417.405h-.728v1.19a.768.768,0,0,1-.174.532.585.585,0,0,1-.445.2H279.1a.588.588,0,0,1-.435-.193.771.771,0,0,1-.168-.522v-3.642a.729.729,0,0,1,.191-.559.8.8,0,0,1,.56-.174h1.226a3.376,3.376,0,0,1,.877.088,1.386,1.386,0,0,1,.558.3,1.336,1.336,0,0,1,.359.511,1.756,1.756,0,0,1,.12.664Zm4.743,2.911v.085h-.006a.5.5,0,0,1-.165.306.669.669,0,0,1-.454.146h-2.308a.641.641,0,0,1-.732-.733v-3.632a.771.771,0,0,1,.167-.532.573.573,0,0,1,.442-.2h.015a.6.6,0,0,1,.452.191.759.759,0,0,1,.174.537v3.286h1.79a.663.663,0,0,1,.454.15.514.514,0,0,1,.171.389Zm2.216-.112a.774.774,0,0,1-.173.537.605.605,0,0,1-.452.191h-.027a.585.585,0,0,1-.427-.193.778.778,0,0,1-.171-.534v-3.717a.774.774,0,0,1,.17-.534.579.579,0,0,1,.438-.193h.016a.6.6,0,0,1,.452.191.754.754,0,0,1,.174.536Zm4.93-3.849v.034h0a.5.5,0,0,1-.157.342.581.581,0,0,1-.353.135v0H291.94v.912h1.428a.609.609,0,0,1,.424.136.483.483,0,0,1,.156.367v.091h-.006a.464.464,0,0,1-.152.283.619.619,0,0,1-.422.134H291.94v1.409a.773.773,0,0,1-.172.538.6.6,0,0,1-.446.19H291.3a.59.59,0,0,1-.432-.191.773.773,0,0,1-.173-.536v-3.63a.932.932,0,0,1,.076-.4.519.519,0,0,1,.263-.261.96.96,0,0,1,.395-.074h2.252a.627.627,0,0,1,.438.139.491.491,0,0,1,.159.369Zm2.176,3.849a.773.773,0,0,1-.172.537.606.606,0,0,1-.453.191H295.8a.583.583,0,0,1-.427-.193.773.773,0,0,1-.171-.534v-3.717a.769.769,0,0,1,.17-.534.58.58,0,0,1,.437-.193h.016a.6.6,0,0,1,.454.191.758.758,0,0,1,.172.536Zm5.559-.988a1.394,1.394,0,0,1-.123.543,1.873,1.873,0,0,1-.378.559,1.931,1.931,0,0,1-.657.445,2.329,2.329,0,0,1-.91.168h-.009a3.131,3.131,0,0,1-.714-.074,2.014,2.014,0,0,1-.6-.237,2.062,2.062,0,0,1-.5-.425,2.543,2.543,0,0,1-.338-.528,2.7,2.7,0,0,1-.208-.621,3.231,3.231,0,0,1-.07-.693,3.127,3.127,0,0,1,.174-1.072,2.322,2.322,0,0,1,.508-.821,2.215,2.215,0,0,1,.775-.522,2.487,2.487,0,0,1,.94-.178,2.37,2.37,0,0,1,1.086.244,2.005,2.005,0,0,1,.739.611,1.257,1.257,0,0,1,.264.72v.035h0a.562.562,0,0,1-.154.355.519.519,0,0,1-.382.172h0a.537.537,0,0,1-.378-.128,1.343,1.343,0,0,1-.232-.336,1.281,1.281,0,0,0-.394-.472.917.917,0,0,0-.539-.148.977.977,0,0,0-.821.389,1.892,1.892,0,0,0-.319,1.182,2.239,2.239,0,0,0,.143.858,1.031,1.031,0,0,0,.38.48,1.082,1.082,0,0,0,.586.155,1.007,1.007,0,0,0,.61-.176,1.089,1.089,0,0,0,.376-.527,1.187,1.187,0,0,1,.174-.347.48.48,0,0,1,.392-.176h.019a.549.549,0,0,1,.39.163.539.539,0,0,1,.168.4ZM307,411.943v0a.574.574,0,0,1-.178.367.6.6,0,0,1-.429.18h0a.579.579,0,0,1-.26-.056.555.555,0,0,1-.184-.149,1.109,1.109,0,0,1-.137-.244c-.029-.066-.055-.127-.078-.182h0l-.042-.111-.017-.043h0l-.16-.423h-1.714l-.189.51a2.26,2.26,0,0,1-.246.515.51.51,0,0,1-.419.181H302.9a.6.6,0,0,1-.384-.171.552.552,0,0,1-.185-.4V411.9a.836.836,0,0,1,.039-.233c.022-.074.059-.173.108-.3l1.207-3.064.124-.317a1.724,1.724,0,0,1,.17-.336.755.755,0,0,1,.265-.243.777.777,0,0,1,.4-.1h.014a.783.783,0,0,1,.4.1.76.76,0,0,1,.264.239,1.52,1.52,0,0,1,.154.283c.039.094.087.216.144.365l1.231,3.044a1.6,1.6,0,0,1,.156.563Zm4.613-3.914h-.007a.491.491,0,0,1-.166.309.68.68,0,0,1-.463.144h-.9v3.282a.775.775,0,0,1-.171.537.594.594,0,0,1-.445.191h-.008a.6.6,0,0,1-.45-.19.772.772,0,0,1-.173-.537v-3.282h-.9a.663.663,0,0,1-.461-.145.516.516,0,0,1-.169-.39v-.008a.5.5,0,0,1,.175-.4.66.66,0,0,1,.449-.142h3.044a.678.678,0,0,1,.468.147.52.52,0,0,1,.167.391v.09Zm2.153,3.735a.77.77,0,0,1-.172.537.608.608,0,0,1-.453.191h-.008a.577.577,0,0,1-.444-.194.709.709,0,0,1-.169-.448h0V408.04a.767.767,0,0,1,.17-.527.58.58,0,0,1,.433-.193.028.028,0,0,1,.016,0h.006a.6.6,0,0,1,.452.191.756.756,0,0,1,.173.536Zm6.064-1.844v0a3.335,3.335,0,0,1-.154,1.019,2.321,2.321,0,0,1-.476.827,2.083,2.083,0,0,1-.781.54,2.759,2.759,0,0,1-1.032.183h-.018a2.725,2.725,0,0,1-1.04-.189,2.1,2.1,0,0,1-.784-.541,2.311,2.311,0,0,1-.472-.834,3.23,3.23,0,0,1-.157-1.024v-.02a3.139,3.139,0,0,1,.164-1.036,2.287,2.287,0,0,1,.483-.824,2.118,2.118,0,0,1,.774-.523,2.741,2.741,0,0,1,1.02-.18,2.668,2.668,0,0,1,1.332.316,2.075,2.075,0,0,1,.856.91,3.033,3.033,0,0,1,.285,1.346v.028Zm5.189,1.8c0,.453-.242.767-.662.768a.824.824,0,0,1-.281-.045.761.761,0,0,1-.243-.147,1.317,1.317,0,0,1-.188-.211c-.052-.074-.105-.148-.159-.228l-1.522-2.333v2.337h0a.7.7,0,0,1-.161.439.564.564,0,0,1-.426.187h0v-.085l0,.01v.074h0c-.009,0-.015,0-.023,0h0a.553.553,0,0,1-.41-.185.744.744,0,0,1-.158-.5v-3.64a1.159,1.159,0,0,1,.063-.421.7.7,0,0,1,.64-.418h.012a.658.658,0,0,1,.479.2,1.405,1.405,0,0,1,.16.206c.047.076.1.154.149.235l1.567,2.371v-2.316a.773.773,0,0,1,.151-.507.546.546,0,0,1,.423-.188h.012a.55.55,0,0,1,.43.187.745.745,0,0,1,.157.508Zm7.415.237h-.007a.491.491,0,0,1-.166.306.66.66,0,0,1-.447.145H329.5a.642.642,0,0,1-.733-.733v-3.633a.776.776,0,0,1,.168-.532.572.572,0,0,1,.437-.194h.019a.6.6,0,0,1,.454.191.709.709,0,0,1,.169.451h0v3.372h1.79a.655.655,0,0,1,.453.15.511.511,0,0,1,.173.389v.089Zm4.739-4.017v.086h0a.506.506,0,0,1-.166.307.68.68,0,0,1-.464.145h-.9v3.281a.764.764,0,0,1-.171.538.59.59,0,0,1-.445.191h-.009a.593.593,0,0,1-.449-.191.765.765,0,0,1-.172-.532s0-.011,0,0v-3.281H333.5a.668.668,0,0,1-.462-.145.507.507,0,0,1-.168-.388v-.012a.5.5,0,0,1,.174-.4.664.664,0,0,1,.45-.141h3.043a.678.678,0,0,1,.468.147.523.523,0,0,1,.167.392ZM342.3,410.7a2.5,2.5,0,0,1-.244.673,2.157,2.157,0,0,1-.426.542,1.834,1.834,0,0,1-.452.3,2.1,2.1,0,0,1-.523.157,4.12,4.12,0,0,1-.606.043H338.8a.914.914,0,0,1-.468-.1.518.518,0,0,1-.239-.31,1.653,1.653,0,0,1-.046-.409v-3.459a.645.645,0,0,1,.733-.733h1.246a3.506,3.506,0,0,1,.87.094,1.7,1.7,0,0,1,.69.368,2.535,2.535,0,0,1,.787,2.026v0A3.888,3.888,0,0,1,342.3,410.7Zm2.473,1.026h0a.659.659,0,0,1-.208.458.689.689,0,0,1-.472.185h-.006v-.085l-.027.081.024-.072v.076h0c-.007,0-.014,0-.022,0a.71.71,0,0,1-.457-.177.661.661,0,0,1-.214-.511v0a.017.017,0,0,1,0-.008.686.686,0,0,1,.683-.682h.007a.691.691,0,0,1,.49.2.668.668,0,0,1,.2.482v.059Zm1.9-2.06a1.734,1.734,0,0,1-.634.633,1.742,1.742,0,0,1-2.618-1.507,1.743,1.743,0,1,1,3.252.874Z" transform="translate(-220.312 -347.907)"/><path class="cls-1" d="M345.361,408.549c.033-.019.052-.041.054-.126a.1.1,0,0,0-.05-.093.417.417,0,0,0-.227-.047H344.9v.307h.2A.62.62,0,0,0,345.361,408.549Z" transform="translate(-220.312 -347.907)"/><path class="cls-1" d="M345.468,409.716l-.144-.282a1.842,1.842,0,0,0-.165-.269.3.3,0,0,0-.112-.1.331.331,0,0,0-.138-.026H344.9v.724h-.5a1.213,1.213,0,0,0,.139.106,1.255,1.255,0,0,0,1.251,0,1.19,1.19,0,0,0,.137-.106h-.441Z" transform="translate(-220.312 -347.907)"/></svg>